<mxfile host="app.diagrams.net" modified="2020-08-28T08:27:18.757Z" agent="5.0 (Macintosh; Intel Mac OS X 10_14_6) AppleWebKit/537.36 (KHTML, like Gecko) Chrome/84.0.4147.135 Safari/537.36" etag="oBFIETm3UsuZoU7g6fVw" version="13.6.5" type="github">
  <diagram id="6I0OCvxSQrVGMHxT2VVA" name="Page-1">
    <mxGraphModel dx="2951" dy="1579" grid="1" gridSize="10" guides="1" tooltips="1" connect="1" arrows="1" fold="1" page="1" pageScale="1" pageWidth="850" pageHeight="1100" math="0" shadow="0">
      <root>
        <mxCell id="0" />
        <mxCell id="1" parent="0" />
        <mxCell id="dKdSaXE48SgPbhcamS2K-63" value="Title" style="text;strokeColor=none;fillColor=none;html=1;fontSize=24;fontStyle=1;verticalAlign=middle;align=center;" parent="1" vertex="1">
          <mxGeometry x="50" y="70" width="1590" height="40" as="geometry" />
        </mxCell>
        <mxCell id="wOvtJZPx40vPHtbdFEr0-1" value="项目初始化" style="shape=step;perimeter=stepPerimeter;whiteSpace=wrap;html=1;fixedSize=1;fontSize=32;" vertex="1" parent="1">
          <mxGeometry x="120" y="250" width="220" height="80" as="geometry" />
        </mxCell>
        <mxCell id="wOvtJZPx40vPHtbdFEr0-2" value="页面开发" style="shape=step;perimeter=stepPerimeter;whiteSpace=wrap;html=1;fixedSize=1;fontSize=32;" vertex="1" parent="1">
          <mxGeometry x="340" y="250" width="220" height="80" as="geometry" />
        </mxCell>
        <mxCell id="wOvtJZPx40vPHtbdFEr0-5" value="页面调试" style="shape=step;perimeter=stepPerimeter;whiteSpace=wrap;html=1;fixedSize=1;fontSize=32;" vertex="1" parent="1">
          <mxGeometry x="560" y="250" width="220" height="80" as="geometry" />
        </mxCell>
        <mxCell id="wOvtJZPx40vPHtbdFEr0-6" value="性能分析" style="shape=step;perimeter=stepPerimeter;whiteSpace=wrap;html=1;fixedSize=1;fontSize=32;" vertex="1" parent="1">
          <mxGeometry x="780" y="250" width="220" height="80" as="geometry" />
        </mxCell>
        <mxCell id="wOvtJZPx40vPHtbdFEr0-7" value="持续集成" style="shape=step;perimeter=stepPerimeter;whiteSpace=wrap;html=1;fixedSize=1;fontSize=32;" vertex="1" parent="1">
          <mxGeometry x="1000" y="250" width="220" height="80" as="geometry" />
        </mxCell>
        <mxCell id="wOvtJZPx40vPHtbdFEr0-8" value="功能测试" style="shape=step;perimeter=stepPerimeter;whiteSpace=wrap;html=1;fixedSize=1;fontSize=32;" vertex="1" parent="1">
          <mxGeometry x="1220" y="250" width="220" height="80" as="geometry" />
        </mxCell>
        <mxCell id="wOvtJZPx40vPHtbdFEr0-9" value="性能测试" style="shape=step;perimeter=stepPerimeter;whiteSpace=wrap;html=1;fixedSize=1;fontSize=32;" vertex="1" parent="1">
          <mxGeometry x="1440" y="250" width="220" height="80" as="geometry" />
        </mxCell>
        <mxCell id="wOvtJZPx40vPHtbdFEr0-10" value="配置管理" style="shape=step;perimeter=stepPerimeter;whiteSpace=wrap;html=1;fixedSize=1;fontSize=32;" vertex="1" parent="1">
          <mxGeometry x="1670" y="250" width="220" height="80" as="geometry" />
        </mxCell>
        <mxCell id="wOvtJZPx40vPHtbdFEr0-11" value="发布" style="shape=step;perimeter=stepPerimeter;whiteSpace=wrap;html=1;fixedSize=1;fontSize=32;" vertex="1" parent="1">
          <mxGeometry x="1890" y="250" width="220" height="80" as="geometry" />
        </mxCell>
        <mxCell id="wOvtJZPx40vPHtbdFEr0-12" value="监控告警" style="shape=step;perimeter=stepPerimeter;whiteSpace=wrap;html=1;fixedSize=1;fontSize=32;" vertex="1" parent="1">
          <mxGeometry x="2110" y="250" width="220" height="80" as="geometry" />
        </mxCell>
        <mxCell id="wOvtJZPx40vPHtbdFEr0-13" value="开发阶段" style="rounded=0;whiteSpace=wrap;html=1;fontSize=32;" vertex="1" parent="1">
          <mxGeometry x="120" y="170" width="1080" height="70" as="geometry" />
        </mxCell>
        <mxCell id="wOvtJZPx40vPHtbdFEr0-14" value="测试阶段" style="rounded=0;whiteSpace=wrap;html=1;fontSize=32;" vertex="1" parent="1">
          <mxGeometry x="1220" y="170" width="430" height="70" as="geometry" />
        </mxCell>
        <mxCell id="wOvtJZPx40vPHtbdFEr0-15" value="发布阶段" style="rounded=0;whiteSpace=wrap;html=1;fontSize=32;" vertex="1" parent="1">
          <mxGeometry x="1670" y="170" width="420" height="70" as="geometry" />
        </mxCell>
        <mxCell id="wOvtJZPx40vPHtbdFEr0-16" value="质量监控" style="rounded=0;whiteSpace=wrap;html=1;fontSize=32;" vertex="1" parent="1">
          <mxGeometry x="2110" y="170" width="200" height="70" as="geometry" />
        </mxCell>
      </root>
    </mxGraphModel>
  </diagram>
</mxfile>
